<mxfile host="app.diagrams.net" modified="2023-02-14T17:25:30.396Z" agent="5.0 (Macintosh; Intel Mac OS X 10_15_7) AppleWebKit/605.1.15 (KHTML, like Gecko) Version/16.1 Safari/605.1.15" etag="kKg710JFpFKL9ksvALxH" version="20.8.20" type="github">
  <diagram id="R2lEEEUBdFMjLlhIrx00" name="Page-1">
    <mxGraphModel dx="1405" dy="761" grid="1" gridSize="10" guides="1" tooltips="1" connect="1" arrows="1" fold="1" page="1" pageScale="1" pageWidth="850" pageHeight="1100" math="0" shadow="0" extFonts="Permanent Marker^https://fonts.googleapis.com/css?family=Permanent+Marker">
      <root>
        <mxCell id="0" />
        <mxCell id="1" parent="0" />
        <mxCell id="bkdPCyFF_JCRdizK2mb8-16" style="edgeStyle=orthogonalEdgeStyle;curved=1;rounded=0;orthogonalLoop=1;jettySize=auto;html=1;exitX=1;exitY=0.25;exitDx=0;exitDy=0;strokeWidth=1;endArrow=none;endFill=0;" edge="1" parent="1" source="bkdPCyFF_JCRdizK2mb8-1" target="bkdPCyFF_JCRdizK2mb8-15">
          <mxGeometry relative="1" as="geometry" />
        </mxCell>
        <mxCell id="bkdPCyFF_JCRdizK2mb8-1" value="Equipo" style="rounded=0;whiteSpace=wrap;html=1;" vertex="1" parent="1">
          <mxGeometry x="160" y="180" width="120" height="60" as="geometry" />
        </mxCell>
        <mxCell id="bkdPCyFF_JCRdizK2mb8-2" value="Estadios" style="rounded=0;whiteSpace=wrap;html=1;" vertex="1" parent="1">
          <mxGeometry x="390" y="430" width="120" height="60" as="geometry" />
        </mxCell>
        <mxCell id="bkdPCyFF_JCRdizK2mb8-3" value="Liga/División" style="rounded=0;whiteSpace=wrap;html=1;" vertex="1" parent="1">
          <mxGeometry x="640" y="210" width="120" height="60" as="geometry" />
        </mxCell>
        <mxCell id="bkdPCyFF_JCRdizK2mb8-5" style="rounded=0;orthogonalLoop=1;jettySize=auto;html=1;edgeStyle=orthogonalEdgeStyle;curved=1;strokeWidth=1;endArrow=none;endFill=0;" edge="1" parent="1" source="bkdPCyFF_JCRdizK2mb8-4" target="bkdPCyFF_JCRdizK2mb8-1">
          <mxGeometry relative="1" as="geometry" />
        </mxCell>
        <mxCell id="bkdPCyFF_JCRdizK2mb8-4" value="Nombre Oficial" style="ellipse;whiteSpace=wrap;html=1;" vertex="1" parent="1">
          <mxGeometry x="70" y="10" width="120" height="80" as="geometry" />
        </mxCell>
        <mxCell id="bkdPCyFF_JCRdizK2mb8-8" style="edgeStyle=orthogonalEdgeStyle;curved=1;rounded=0;orthogonalLoop=1;jettySize=auto;html=1;entryX=0.75;entryY=0;entryDx=0;entryDy=0;strokeWidth=1;endArrow=none;endFill=0;" edge="1" parent="1" source="bkdPCyFF_JCRdizK2mb8-7" target="bkdPCyFF_JCRdizK2mb8-1">
          <mxGeometry relative="1" as="geometry" />
        </mxCell>
        <mxCell id="bkdPCyFF_JCRdizK2mb8-7" value="Nombre corto" style="ellipse;whiteSpace=wrap;html=1;" vertex="1" parent="1">
          <mxGeometry x="250" y="20" width="120" height="70" as="geometry" />
        </mxCell>
        <mxCell id="bkdPCyFF_JCRdizK2mb8-10" style="edgeStyle=orthogonalEdgeStyle;curved=1;rounded=0;orthogonalLoop=1;jettySize=auto;html=1;entryX=0.25;entryY=0;entryDx=0;entryDy=0;strokeWidth=1;endArrow=none;endFill=0;" edge="1" parent="1" source="bkdPCyFF_JCRdizK2mb8-9" target="bkdPCyFF_JCRdizK2mb8-1">
          <mxGeometry relative="1" as="geometry" />
        </mxCell>
        <mxCell id="bkdPCyFF_JCRdizK2mb8-9" value="Nombre histórico" style="ellipse;whiteSpace=wrap;html=1;" vertex="1" parent="1">
          <mxGeometry x="10" y="120" width="120" height="80" as="geometry" />
        </mxCell>
        <mxCell id="bkdPCyFF_JCRdizK2mb8-12" style="edgeStyle=orthogonalEdgeStyle;curved=1;rounded=0;orthogonalLoop=1;jettySize=auto;html=1;entryX=0.25;entryY=1;entryDx=0;entryDy=0;strokeWidth=1;endArrow=none;endFill=0;" edge="1" parent="1" source="bkdPCyFF_JCRdizK2mb8-11" target="bkdPCyFF_JCRdizK2mb8-1">
          <mxGeometry relative="1" as="geometry" />
        </mxCell>
        <mxCell id="bkdPCyFF_JCRdizK2mb8-11" value="Otros nombres" style="ellipse;whiteSpace=wrap;html=1;" vertex="1" parent="1">
          <mxGeometry x="20" y="260" width="120" height="80" as="geometry" />
        </mxCell>
        <mxCell id="bkdPCyFF_JCRdizK2mb8-14" style="edgeStyle=orthogonalEdgeStyle;curved=1;rounded=0;orthogonalLoop=1;jettySize=auto;html=1;entryX=0.5;entryY=1;entryDx=0;entryDy=0;strokeWidth=1;endArrow=none;endFill=0;" edge="1" parent="1" source="bkdPCyFF_JCRdizK2mb8-13" target="bkdPCyFF_JCRdizK2mb8-1">
          <mxGeometry relative="1" as="geometry" />
        </mxCell>
        <mxCell id="bkdPCyFF_JCRdizK2mb8-13" value="Ciudad" style="ellipse;whiteSpace=wrap;html=1;" vertex="1" parent="1">
          <mxGeometry x="120" y="370" width="120" height="80" as="geometry" />
        </mxCell>
        <mxCell id="bkdPCyFF_JCRdizK2mb8-15" value="Fecha fundación" style="ellipse;whiteSpace=wrap;html=1;" vertex="1" parent="1">
          <mxGeometry x="380" y="10" width="120" height="80" as="geometry" />
        </mxCell>
        <mxCell id="bkdPCyFF_JCRdizK2mb8-22" style="edgeStyle=orthogonalEdgeStyle;curved=1;rounded=0;orthogonalLoop=1;jettySize=auto;html=1;exitX=0.5;exitY=0;exitDx=0;exitDy=0;entryX=0.425;entryY=1.033;entryDx=0;entryDy=0;entryPerimeter=0;strokeWidth=1;endArrow=none;endFill=0;" edge="1" parent="1" source="bkdPCyFF_JCRdizK2mb8-17" target="bkdPCyFF_JCRdizK2mb8-2">
          <mxGeometry relative="1" as="geometry" />
        </mxCell>
        <mxCell id="bkdPCyFF_JCRdizK2mb8-17" value="Nombre" style="ellipse;whiteSpace=wrap;html=1;" vertex="1" parent="1">
          <mxGeometry x="425" y="520" width="120" height="80" as="geometry" />
        </mxCell>
        <mxCell id="bkdPCyFF_JCRdizK2mb8-21" style="edgeStyle=orthogonalEdgeStyle;curved=1;rounded=0;orthogonalLoop=1;jettySize=auto;html=1;exitX=0.5;exitY=0;exitDx=0;exitDy=0;entryX=0;entryY=0.5;entryDx=0;entryDy=0;strokeWidth=1;endArrow=none;endFill=0;" edge="1" parent="1" source="bkdPCyFF_JCRdizK2mb8-18" target="bkdPCyFF_JCRdizK2mb8-2">
          <mxGeometry relative="1" as="geometry" />
        </mxCell>
        <mxCell id="bkdPCyFF_JCRdizK2mb8-18" value="Fecha de inaguración" style="ellipse;whiteSpace=wrap;html=1;" vertex="1" parent="1">
          <mxGeometry x="290" y="520" width="120" height="80" as="geometry" />
        </mxCell>
        <mxCell id="bkdPCyFF_JCRdizK2mb8-23" style="edgeStyle=orthogonalEdgeStyle;curved=1;rounded=0;orthogonalLoop=1;jettySize=auto;html=1;exitX=0;exitY=0;exitDx=0;exitDy=0;entryX=1;entryY=0.5;entryDx=0;entryDy=0;strokeWidth=1;endArrow=none;endFill=0;" edge="1" parent="1" source="bkdPCyFF_JCRdizK2mb8-19" target="bkdPCyFF_JCRdizK2mb8-2">
          <mxGeometry relative="1" as="geometry" />
        </mxCell>
        <mxCell id="bkdPCyFF_JCRdizK2mb8-19" value="Capacidad" style="ellipse;whiteSpace=wrap;html=1;" vertex="1" parent="1">
          <mxGeometry x="560" y="470" width="120" height="80" as="geometry" />
        </mxCell>
        <mxCell id="bkdPCyFF_JCRdizK2mb8-30" style="edgeStyle=orthogonalEdgeStyle;curved=1;rounded=0;orthogonalLoop=1;jettySize=auto;html=1;exitX=0;exitY=0.5;exitDx=0;exitDy=0;entryX=1;entryY=0.5;entryDx=0;entryDy=0;strokeWidth=1;endArrow=none;endFill=0;" edge="1" parent="1" source="bkdPCyFF_JCRdizK2mb8-24" target="bkdPCyFF_JCRdizK2mb8-3">
          <mxGeometry relative="1" as="geometry" />
        </mxCell>
        <mxCell id="bkdPCyFF_JCRdizK2mb8-24" value="Denominación oficial" style="ellipse;whiteSpace=wrap;html=1;" vertex="1" parent="1">
          <mxGeometry x="840" y="130" width="120" height="80" as="geometry" />
        </mxCell>
        <mxCell id="bkdPCyFF_JCRdizK2mb8-29" style="edgeStyle=orthogonalEdgeStyle;curved=1;rounded=0;orthogonalLoop=1;jettySize=auto;html=1;entryX=0.5;entryY=0;entryDx=0;entryDy=0;strokeWidth=1;endArrow=none;endFill=0;" edge="1" parent="1" source="bkdPCyFF_JCRdizK2mb8-26" target="bkdPCyFF_JCRdizK2mb8-3">
          <mxGeometry relative="1" as="geometry" />
        </mxCell>
        <mxCell id="bkdPCyFF_JCRdizK2mb8-26" value="Temporadas" style="ellipse;whiteSpace=wrap;html=1;" vertex="1" parent="1">
          <mxGeometry x="650" y="70" width="120" height="60" as="geometry" />
        </mxCell>
        <mxCell id="bkdPCyFF_JCRdizK2mb8-31" style="edgeStyle=orthogonalEdgeStyle;curved=1;rounded=0;orthogonalLoop=1;jettySize=auto;html=1;exitX=0;exitY=0.5;exitDx=0;exitDy=0;entryX=0.5;entryY=1;entryDx=0;entryDy=0;strokeWidth=1;endArrow=none;endFill=0;" edge="1" parent="1" source="bkdPCyFF_JCRdizK2mb8-27" target="bkdPCyFF_JCRdizK2mb8-3">
          <mxGeometry relative="1" as="geometry" />
        </mxCell>
        <mxCell id="bkdPCyFF_JCRdizK2mb8-27" value="Jornadas" style="ellipse;whiteSpace=wrap;html=1;" vertex="1" parent="1">
          <mxGeometry x="830" y="290" width="120" height="80" as="geometry" />
        </mxCell>
      </root>
    </mxGraphModel>
  </diagram>
</mxfile>
